<?xml version="1.0" standalone="no"?>
<!DOCTYPE svg PUBLIC "-//W3C//DTD SVG 20010904//EN" "http://www.w3.org/TR/2001/REC-SVG-20010904/DTD/svg10.dtd">
<svg version="1.0" xmlns="http://www.w3.org/2000/svg"
 width="221.000000pt" height="221.000000pt" viewBox="0 0 221.000000 221.000000"
 preserveAspectRatio="xMidYMid meet">

<g transform="translate(0.000000,221.000000) scale(0.100000,-0.100000)"
fill="#1E90FF" stroke="none">
<path d="M987 2139 c-347 -37 -666 -266 -813 -584 -153 -331 -123 -730 76
-1026 63 -93 193 -223 286 -285 334 -223 774 -223 1108 0 93 62 223 192 286
285 129 192 189 435 169 679 -36 424 -340 789 -750 902 -63 17 -242 42 -274
38 -5 0 -45 -4 -88 -9z m301 -159 c310 -74 559 -320 649 -640 25 -93 25 -367
0 -460 -90 -320 -339 -566 -649 -640 -113 -27 -283 -27 -396 0 -310 74 -559
320 -649 640 -25 93 -25 367 0 460 89 317 337 564 644 639 110 27 290 28 401
1z"/>
<path d="M951 1800 c-270 -57 -458 -231 -542 -500 -34 -107 -34 -283 0 -390
74 -239 231 -403 456 -477 69 -23 97 -27 200 -27 103 0 131 4 200 27 226 75
382 237 456 477 34 107 34 283 0 390 -74 240 -233 405 -456 476 -89 29 -238
40 -314 24z m221 -151 c244 -51 428 -284 428 -544 0 -304 -242 -555 -535 -555
-293 0 -535 251 -535 555 0 349 311 612 642 544z"/>
<path d="M1022 1499 c-164 -22 -307 -168 -330 -337 -24 -178 60 -348 211 -422
161 -79 346 -46 463 83 255 282 29 726 -344 676z m152 -153 c171 -72 211 -321
71 -445 -53 -46 -94 -61 -165 -61 -71 0 -112 15 -165 61 -139 123 -101 371 69
445 41 17 148 18 190 0z"/>
</g>
</svg>

